<mxfile host="app.diagrams.net" modified="2022-02-23T13:53:35.081Z" agent="5.0 (Macintosh; Intel Mac OS X 10_15_7) AppleWebKit/605.1.15 (KHTML, like Gecko) Version/15.2 Safari/605.1.15" etag="INDERVRnN3eBmFAEGujY" version="16.6.2" type="gitlab">
  <diagram id="C5RBs43oDa-KdzZeNtuy" name="Page-1">
    <mxGraphModel dx="1018" dy="604" grid="1" gridSize="10" guides="1" tooltips="1" connect="1" arrows="1" fold="1" page="1" pageScale="1" pageWidth="827" pageHeight="1169" math="0" shadow="0">
      <root>
        <mxCell id="WIyWlLk6GJQsqaUBKTNV-0" />
        <mxCell id="WIyWlLk6GJQsqaUBKTNV-1" parent="WIyWlLk6GJQsqaUBKTNV-0" />
        <mxCell id="GPa3LWOIcoC2SGUldEkZ-6" value="" style="endArrow=classic;html=1;rounded=0;" edge="1" parent="WIyWlLk6GJQsqaUBKTNV-1" target="GPa3LWOIcoC2SGUldEkZ-7">
          <mxGeometry width="50" height="50" relative="1" as="geometry">
            <mxPoint x="174.62753950338606" y="99.7968397291196" as="sourcePoint" />
            <mxPoint x="174" y="150" as="targetPoint" />
          </mxGeometry>
        </mxCell>
        <mxCell id="GPa3LWOIcoC2SGUldEkZ-7" value="Mutation" style="rounded=1;whiteSpace=wrap;html=1;" vertex="1" parent="WIyWlLk6GJQsqaUBKTNV-1">
          <mxGeometry x="120" y="140" width="110" height="40" as="geometry" />
        </mxCell>
        <mxCell id="GPa3LWOIcoC2SGUldEkZ-9" value="" style="endArrow=classic;html=1;rounded=0;" edge="1" parent="WIyWlLk6GJQsqaUBKTNV-1" source="GPa3LWOIcoC2SGUldEkZ-7" target="GPa3LWOIcoC2SGUldEkZ-10">
          <mxGeometry width="50" height="50" relative="1" as="geometry">
            <mxPoint x="175.12753950338606" y="189.99683972911959" as="sourcePoint" />
            <mxPoint x="174.5" y="240.2" as="targetPoint" />
          </mxGeometry>
        </mxCell>
        <mxCell id="GPa3LWOIcoC2SGUldEkZ-10" value="Reproduction" style="rounded=1;whiteSpace=wrap;html=1;" vertex="1" parent="WIyWlLk6GJQsqaUBKTNV-1">
          <mxGeometry x="120" y="210" width="110" height="40" as="geometry" />
        </mxCell>
        <mxCell id="GPa3LWOIcoC2SGUldEkZ-11" value="" style="endArrow=classic;html=1;rounded=0;" edge="1" parent="WIyWlLk6GJQsqaUBKTNV-1" source="GPa3LWOIcoC2SGUldEkZ-10" target="GPa3LWOIcoC2SGUldEkZ-12">
          <mxGeometry width="50" height="50" relative="1" as="geometry">
            <mxPoint x="175.12753950338606" y="279.99683972911953" as="sourcePoint" />
            <mxPoint x="174.5" y="330.20000000000005" as="targetPoint" />
          </mxGeometry>
        </mxCell>
        <mxCell id="GPa3LWOIcoC2SGUldEkZ-12" value="Population size control" style="rounded=1;whiteSpace=wrap;html=1;" vertex="1" parent="WIyWlLk6GJQsqaUBKTNV-1">
          <mxGeometry x="120" y="280" width="110" height="40" as="geometry" />
        </mxCell>
        <mxCell id="GPa3LWOIcoC2SGUldEkZ-15" value="Repeat" style="curved=1;endArrow=classic;html=1;rounded=0;exitX=1;exitY=0.5;exitDx=0;exitDy=0;entryX=1;entryY=0.5;entryDx=0;entryDy=0;" edge="1" parent="WIyWlLk6GJQsqaUBKTNV-1" source="GPa3LWOIcoC2SGUldEkZ-12" target="GPa3LWOIcoC2SGUldEkZ-7">
          <mxGeometry width="50" height="50" relative="1" as="geometry">
            <mxPoint x="230" y="350" as="sourcePoint" />
            <mxPoint x="280" y="300" as="targetPoint" />
            <Array as="points">
              <mxPoint x="260" y="300" />
              <mxPoint x="260" y="160" />
            </Array>
          </mxGeometry>
        </mxCell>
        <mxCell id="GPa3LWOIcoC2SGUldEkZ-17" value="Initialisation" style="ellipse;whiteSpace=wrap;html=1;" vertex="1" parent="WIyWlLk6GJQsqaUBKTNV-1">
          <mxGeometry x="130" y="50" width="90" height="50" as="geometry" />
        </mxCell>
        <mxCell id="GPa3LWOIcoC2SGUldEkZ-18" value="Times of pre-ratchet, ratchet and meltdown phase" style="rounded=0;whiteSpace=wrap;html=1;" vertex="1" parent="WIyWlLk6GJQsqaUBKTNV-1">
          <mxGeometry x="180" y="400" width="110" height="60" as="geometry" />
        </mxCell>
        <mxCell id="GPa3LWOIcoC2SGUldEkZ-19" value="Times until loss of the fittest class" style="rounded=0;whiteSpace=wrap;html=1;" vertex="1" parent="WIyWlLk6GJQsqaUBKTNV-1">
          <mxGeometry x="180" y="470" width="110" height="40" as="geometry" />
        </mxCell>
        <mxCell id="GPa3LWOIcoC2SGUldEkZ-20" value="Extinction time" style="rounded=0;whiteSpace=wrap;html=1;" vertex="1" parent="WIyWlLk6GJQsqaUBKTNV-1">
          <mxGeometry x="60" y="390" width="110" height="30" as="geometry" />
        </mxCell>
        <mxCell id="GPa3LWOIcoC2SGUldEkZ-21" value="Number of mutations" style="rounded=0;whiteSpace=wrap;html=1;" vertex="1" parent="WIyWlLk6GJQsqaUBKTNV-1">
          <mxGeometry x="60" y="430" width="110" height="40" as="geometry" />
        </mxCell>
        <mxCell id="GPa3LWOIcoC2SGUldEkZ-22" value="Distribution of mutations" style="rounded=0;whiteSpace=wrap;html=1;" vertex="1" parent="WIyWlLk6GJQsqaUBKTNV-1">
          <mxGeometry x="60" y="480" width="110" height="40" as="geometry" />
        </mxCell>
        <mxCell id="GPa3LWOIcoC2SGUldEkZ-24" value="" style="endArrow=classic;html=1;rounded=0;" edge="1" parent="WIyWlLk6GJQsqaUBKTNV-1" source="GPa3LWOIcoC2SGUldEkZ-12" target="GPa3LWOIcoC2SGUldEkZ-28">
          <mxGeometry relative="1" as="geometry">
            <mxPoint x="114.5" y="320" as="sourcePoint" />
            <mxPoint x="114.5" y="390" as="targetPoint" />
          </mxGeometry>
        </mxCell>
        <mxCell id="GPa3LWOIcoC2SGUldEkZ-25" value="Output" style="edgeLabel;resizable=0;html=1;align=center;verticalAlign=middle;" connectable="0" vertex="1" parent="GPa3LWOIcoC2SGUldEkZ-24">
          <mxGeometry relative="1" as="geometry" />
        </mxCell>
        <mxCell id="GPa3LWOIcoC2SGUldEkZ-28" value="" style="strokeWidth=2;html=1;shape=mxgraph.flowchart.annotation_2;align=left;labelPosition=right;pointerEvents=1;direction=south;" vertex="1" parent="WIyWlLk6GJQsqaUBKTNV-1">
          <mxGeometry x="50" y="370" width="250" height="20" as="geometry" />
        </mxCell>
        <mxCell id="GPa3LWOIcoC2SGUldEkZ-29" value="" style="endArrow=classic;html=1;rounded=0;" edge="1" parent="WIyWlLk6GJQsqaUBKTNV-1" source="GPa3LWOIcoC2SGUldEkZ-18" target="GPa3LWOIcoC2SGUldEkZ-33">
          <mxGeometry relative="1" as="geometry">
            <mxPoint x="290" y="429.5" as="sourcePoint" />
            <mxPoint x="390" y="429.5" as="targetPoint" />
          </mxGeometry>
        </mxCell>
        <mxCell id="GPa3LWOIcoC2SGUldEkZ-31" value="" style="endArrow=classic;html=1;rounded=0;" edge="1" parent="WIyWlLk6GJQsqaUBKTNV-1" source="GPa3LWOIcoC2SGUldEkZ-19" target="GPa3LWOIcoC2SGUldEkZ-33">
          <mxGeometry relative="1" as="geometry">
            <mxPoint x="290" y="489.8225806451612" as="sourcePoint" />
            <mxPoint x="390" y="489.5" as="targetPoint" />
          </mxGeometry>
        </mxCell>
        <mxCell id="GPa3LWOIcoC2SGUldEkZ-33" value="Run for a range of parameters" style="rounded=1;whiteSpace=wrap;html=1;" vertex="1" parent="WIyWlLk6GJQsqaUBKTNV-1">
          <mxGeometry x="350" y="410" width="110" height="100" as="geometry" />
        </mxCell>
      </root>
    </mxGraphModel>
  </diagram>
</mxfile>
